<mxfile host="app.diagrams.net" modified="2020-08-07T07:40:07.950Z" agent="5.0 (Windows NT 10.0; Win64; x64) AppleWebKit/537.36 (KHTML, like Gecko) Chrome/84.0.4147.105 Safari/537.36" etag="Ssbxqb9dSLC-9txLIhLY" version="13.6.0" type="github">
  <diagram id="C5RBs43oDa-KdzZeNtuy" name="Page-1">
    <mxGraphModel dx="919" dy="2478" grid="1" gridSize="10" guides="1" tooltips="1" connect="1" arrows="1" fold="1" page="1" pageScale="1" pageWidth="827" pageHeight="1169" math="0" shadow="0">
      <root>
        <mxCell id="WIyWlLk6GJQsqaUBKTNV-0" />
        <mxCell id="WIyWlLk6GJQsqaUBKTNV-1" parent="WIyWlLk6GJQsqaUBKTNV-0" />
        <mxCell id="XQoSIhCY0IaSh6E8UIEB-1" style="edgeStyle=orthogonalEdgeStyle;rounded=0;orthogonalLoop=1;jettySize=auto;html=1;exitX=0.5;exitY=1;exitDx=0;exitDy=0;" edge="1" parent="WIyWlLk6GJQsqaUBKTNV-1">
          <mxGeometry relative="1" as="geometry">
            <mxPoint x="405" y="670" as="sourcePoint" />
            <mxPoint x="405" y="670" as="targetPoint" />
          </mxGeometry>
        </mxCell>
        <mxCell id="XQoSIhCY0IaSh6E8UIEB-2" value="" style="rounded=1;whiteSpace=wrap;html=1;fillColor=#f5f5f5;strokeColor=#666666;fontColor=#333333;perimeterSpacing=0;arcSize=5;imageWidth=24;" vertex="1" parent="WIyWlLk6GJQsqaUBKTNV-1">
          <mxGeometry x="40" y="-1120" width="780" height="570" as="geometry" />
        </mxCell>
        <mxCell id="XQoSIhCY0IaSh6E8UIEB-4" value="&lt;font style=&quot;font-size: 22px&quot;&gt;COVID 19 TRACKER&lt;/font&gt;" style="text;html=1;strokeColor=none;fillColor=none;align=left;verticalAlign=middle;whiteSpace=wrap;rounded=0;" vertex="1" parent="WIyWlLk6GJQsqaUBKTNV-1">
          <mxGeometry x="90" y="-1082.5" width="280" height="30" as="geometry" />
        </mxCell>
        <mxCell id="XQoSIhCY0IaSh6E8UIEB-5" value="Worldwide Search" style="rounded=1;whiteSpace=wrap;html=1;arcSize=5;" vertex="1" parent="WIyWlLk6GJQsqaUBKTNV-1">
          <mxGeometry x="320" y="-1085" width="260" height="35" as="geometry" />
        </mxCell>
        <mxCell id="XQoSIhCY0IaSh6E8UIEB-6" value="" style="rounded=1;whiteSpace=wrap;html=1;arcSize=5;" vertex="1" parent="WIyWlLk6GJQsqaUBKTNV-1">
          <mxGeometry x="90" y="-1040" width="150" height="80" as="geometry" />
        </mxCell>
        <mxCell id="XQoSIhCY0IaSh6E8UIEB-7" value="Coronavirus cases" style="text;html=1;strokeColor=none;fillColor=none;align=left;verticalAlign=middle;whiteSpace=wrap;rounded=0;imageAlign=left;" vertex="1" parent="WIyWlLk6GJQsqaUBKTNV-1">
          <mxGeometry x="100" y="-1030" width="130" height="20" as="geometry" />
        </mxCell>
        <mxCell id="XQoSIhCY0IaSh6E8UIEB-9" value="+2000" style="text;html=1;strokeColor=none;fillColor=none;align=left;verticalAlign=middle;whiteSpace=wrap;rounded=0;imageAlign=left;" vertex="1" parent="WIyWlLk6GJQsqaUBKTNV-1">
          <mxGeometry x="100" y="-1010" width="130" height="20" as="geometry" />
        </mxCell>
        <mxCell id="XQoSIhCY0IaSh6E8UIEB-10" value="1.2 M Total" style="text;html=1;strokeColor=none;fillColor=none;align=left;verticalAlign=middle;whiteSpace=wrap;rounded=0;imageAlign=left;" vertex="1" parent="WIyWlLk6GJQsqaUBKTNV-1">
          <mxGeometry x="100" y="-990" width="130" height="20" as="geometry" />
        </mxCell>
        <mxCell id="XQoSIhCY0IaSh6E8UIEB-22" value="" style="rounded=1;whiteSpace=wrap;html=1;arcSize=5;" vertex="1" parent="WIyWlLk6GJQsqaUBKTNV-1">
          <mxGeometry x="260" y="-1040" width="150" height="80" as="geometry" />
        </mxCell>
        <mxCell id="XQoSIhCY0IaSh6E8UIEB-23" value="Recovered" style="text;html=1;strokeColor=none;fillColor=none;align=left;verticalAlign=middle;whiteSpace=wrap;rounded=0;imageAlign=left;" vertex="1" parent="WIyWlLk6GJQsqaUBKTNV-1">
          <mxGeometry x="270" y="-1030" width="130" height="20" as="geometry" />
        </mxCell>
        <mxCell id="XQoSIhCY0IaSh6E8UIEB-24" value="+2000" style="text;html=1;strokeColor=none;fillColor=none;align=left;verticalAlign=middle;whiteSpace=wrap;rounded=0;imageAlign=left;" vertex="1" parent="WIyWlLk6GJQsqaUBKTNV-1">
          <mxGeometry x="270" y="-1010" width="130" height="20" as="geometry" />
        </mxCell>
        <mxCell id="XQoSIhCY0IaSh6E8UIEB-25" value="1.2 M Total" style="text;html=1;strokeColor=none;fillColor=none;align=left;verticalAlign=middle;whiteSpace=wrap;rounded=0;imageAlign=left;" vertex="1" parent="WIyWlLk6GJQsqaUBKTNV-1">
          <mxGeometry x="270" y="-990" width="130" height="20" as="geometry" />
        </mxCell>
        <mxCell id="XQoSIhCY0IaSh6E8UIEB-26" value="" style="rounded=1;whiteSpace=wrap;html=1;arcSize=5;" vertex="1" parent="WIyWlLk6GJQsqaUBKTNV-1">
          <mxGeometry x="430" y="-1040" width="150" height="80" as="geometry" />
        </mxCell>
        <mxCell id="XQoSIhCY0IaSh6E8UIEB-27" value="Deaths" style="text;html=1;strokeColor=none;fillColor=none;align=left;verticalAlign=middle;whiteSpace=wrap;rounded=0;imageAlign=left;" vertex="1" parent="WIyWlLk6GJQsqaUBKTNV-1">
          <mxGeometry x="440" y="-1030" width="130" height="20" as="geometry" />
        </mxCell>
        <mxCell id="XQoSIhCY0IaSh6E8UIEB-28" value="+2000" style="text;html=1;strokeColor=none;fillColor=none;align=left;verticalAlign=middle;whiteSpace=wrap;rounded=0;imageAlign=left;" vertex="1" parent="WIyWlLk6GJQsqaUBKTNV-1">
          <mxGeometry x="440" y="-1010" width="130" height="20" as="geometry" />
        </mxCell>
        <mxCell id="XQoSIhCY0IaSh6E8UIEB-29" value="1.2 M Total" style="text;html=1;strokeColor=none;fillColor=none;align=left;verticalAlign=middle;whiteSpace=wrap;rounded=0;imageAlign=left;" vertex="1" parent="WIyWlLk6GJQsqaUBKTNV-1">
          <mxGeometry x="440" y="-990" width="130" height="20" as="geometry" />
        </mxCell>
        <mxCell id="XQoSIhCY0IaSh6E8UIEB-31" value="" style="rounded=1;whiteSpace=wrap;html=1;arcSize=5;" vertex="1" parent="WIyWlLk6GJQsqaUBKTNV-1">
          <mxGeometry x="90" y="-944" width="490" height="360" as="geometry" />
        </mxCell>
        <mxCell id="XQoSIhCY0IaSh6E8UIEB-32" value="" style="shape=image;html=1;verticalAlign=top;verticalLabelPosition=bottom;labelBackgroundColor=#ffffff;imageAspect=0;aspect=fixed;image=https://cdn4.iconfinder.com/data/icons/small-n-flat/24/map-128.png" vertex="1" parent="WIyWlLk6GJQsqaUBKTNV-1">
          <mxGeometry x="271" y="-828" width="128" height="128" as="geometry" />
        </mxCell>
        <mxCell id="XQoSIhCY0IaSh6E8UIEB-36" value="" style="rounded=1;whiteSpace=wrap;html=1;arcSize=5;" vertex="1" parent="WIyWlLk6GJQsqaUBKTNV-1">
          <mxGeometry x="600" y="-1085" width="180" height="495" as="geometry" />
        </mxCell>
        <mxCell id="XQoSIhCY0IaSh6E8UIEB-37" value="Cases By Country" style="text;html=1;strokeColor=none;fillColor=none;align=left;verticalAlign=middle;whiteSpace=wrap;rounded=0;" vertex="1" parent="WIyWlLk6GJQsqaUBKTNV-1">
          <mxGeometry x="610" y="-1070" width="160" height="20" as="geometry" />
        </mxCell>
        <mxCell id="XQoSIhCY0IaSh6E8UIEB-38" value="Worldwide New Cases" style="text;html=1;strokeColor=none;fillColor=none;align=left;verticalAlign=middle;whiteSpace=wrap;rounded=0;" vertex="1" parent="WIyWlLk6GJQsqaUBKTNV-1">
          <mxGeometry x="610" y="-774" width="160" height="20" as="geometry" />
        </mxCell>
        <mxCell id="XQoSIhCY0IaSh6E8UIEB-54" value="" style="fillColor=#10739E;strokeColor=none;" vertex="1" parent="WIyWlLk6GJQsqaUBKTNV-1">
          <mxGeometry x="605" y="-710" width="30" height="100" as="geometry" />
        </mxCell>
        <mxCell id="XQoSIhCY0IaSh6E8UIEB-55" value="" style="shape=mxgraph.arrows2.arrow;dy=0.4;dx=16;notch=0;direction=north;fillColor=#1699D3;strokeColor=none;" vertex="1" parent="XQoSIhCY0IaSh6E8UIEB-54">
          <mxGeometry x="3" y="30" width="24" height="70" as="geometry" />
        </mxCell>
        <mxCell id="XQoSIhCY0IaSh6E8UIEB-56" value="Label" style="text;html=1;align=center;verticalAlign=middle;whiteSpace=wrap;fontColor=#FFFFFF;fontSize=10;" vertex="1" parent="XQoSIhCY0IaSh6E8UIEB-54">
          <mxGeometry width="30" height="20" as="geometry" />
        </mxCell>
        <mxCell id="XQoSIhCY0IaSh6E8UIEB-57" value="" style="fillColor=#F2931E;strokeColor=none;" vertex="1" parent="WIyWlLk6GJQsqaUBKTNV-1">
          <mxGeometry x="640" y="-730" width="30" height="120" as="geometry" />
        </mxCell>
        <mxCell id="XQoSIhCY0IaSh6E8UIEB-58" value="" style="shape=mxgraph.arrows2.arrow;dy=0.4;dx=16;notch=0;direction=south;fillColor=#F5AB50;strokeColor=none;" vertex="1" parent="XQoSIhCY0IaSh6E8UIEB-57">
          <mxGeometry x="3" width="24" height="80" as="geometry" />
        </mxCell>
        <mxCell id="XQoSIhCY0IaSh6E8UIEB-59" value="Label" style="text;html=1;align=center;verticalAlign=middle;whiteSpace=wrap;fontColor=#FFFFFF;fontSize=10;" vertex="1" parent="XQoSIhCY0IaSh6E8UIEB-57">
          <mxGeometry width="30" height="20" as="geometry" />
        </mxCell>
        <mxCell id="XQoSIhCY0IaSh6E8UIEB-60" value="" style="fillColor=#AE4132;strokeColor=none;" vertex="1" parent="WIyWlLk6GJQsqaUBKTNV-1">
          <mxGeometry x="675" y="-740" width="30" height="130" as="geometry" />
        </mxCell>
        <mxCell id="XQoSIhCY0IaSh6E8UIEB-69" style="edgeStyle=orthogonalEdgeStyle;rounded=0;orthogonalLoop=1;jettySize=auto;html=1;exitX=1;exitY=0.5;exitDx=0;exitDy=0;exitPerimeter=0;entryX=0.5;entryY=0.615;entryDx=0;entryDy=0;entryPerimeter=0;" edge="1" parent="XQoSIhCY0IaSh6E8UIEB-60" source="XQoSIhCY0IaSh6E8UIEB-61" target="XQoSIhCY0IaSh6E8UIEB-60">
          <mxGeometry relative="1" as="geometry" />
        </mxCell>
        <mxCell id="XQoSIhCY0IaSh6E8UIEB-61" value="" style="shape=mxgraph.arrows2.arrow;dy=0.4;dx=16;notch=0;direction=north;fillColor=#E85642;strokeColor=none;" vertex="1" parent="XQoSIhCY0IaSh6E8UIEB-60">
          <mxGeometry x="3" y="80" width="24" height="50" as="geometry" />
        </mxCell>
        <mxCell id="XQoSIhCY0IaSh6E8UIEB-62" value="Label" style="text;html=1;align=center;verticalAlign=middle;whiteSpace=wrap;fontColor=#FFFFFF;fontSize=10;" vertex="1" parent="XQoSIhCY0IaSh6E8UIEB-60">
          <mxGeometry width="30" height="20" as="geometry" />
        </mxCell>
        <mxCell id="XQoSIhCY0IaSh6E8UIEB-63" value="" style="fillColor=#12AAB5;strokeColor=none;" vertex="1" parent="WIyWlLk6GJQsqaUBKTNV-1">
          <mxGeometry x="710" y="-690" width="30" height="80" as="geometry" />
        </mxCell>
        <mxCell id="XQoSIhCY0IaSh6E8UIEB-64" value="" style="shape=mxgraph.arrows2.arrow;dy=0.4;dx=16;notch=0;direction=south;fillColor=#64BBE2;strokeColor=none;" vertex="1" parent="XQoSIhCY0IaSh6E8UIEB-63">
          <mxGeometry x="3" width="24" height="30" as="geometry" />
        </mxCell>
        <mxCell id="XQoSIhCY0IaSh6E8UIEB-65" value="Label" style="text;html=1;align=center;verticalAlign=middle;whiteSpace=wrap;fontColor=#FFFFFF;fontSize=10;" vertex="1" parent="XQoSIhCY0IaSh6E8UIEB-63">
          <mxGeometry width="30" height="20" as="geometry" />
        </mxCell>
        <mxCell id="XQoSIhCY0IaSh6E8UIEB-66" value="" style="fillColor=#23445D;strokeColor=none;" vertex="1" parent="WIyWlLk6GJQsqaUBKTNV-1">
          <mxGeometry x="745" y="-680" width="30" height="70" as="geometry" />
        </mxCell>
        <mxCell id="XQoSIhCY0IaSh6E8UIEB-67" value="" style="shape=mxgraph.arrows2.arrow;dy=0.4;dx=16;notch=0;direction=north;fillColor=#2F5B7C;strokeColor=none;" vertex="1" parent="XQoSIhCY0IaSh6E8UIEB-66">
          <mxGeometry x="3" y="10" width="24" height="60" as="geometry" />
        </mxCell>
        <mxCell id="XQoSIhCY0IaSh6E8UIEB-68" value="Label" style="text;html=1;align=center;verticalAlign=middle;whiteSpace=wrap;fontColor=#FFFFFF;fontSize=10;" vertex="1" parent="XQoSIhCY0IaSh6E8UIEB-66">
          <mxGeometry width="30" height="20" as="geometry" />
        </mxCell>
        <mxCell id="XQoSIhCY0IaSh6E8UIEB-83" value="" style="shape=table;html=1;whiteSpace=wrap;startSize=0;container=1;collapsible=0;childLayout=tableLayout;columnLines=0;rowLines=0;" vertex="1" parent="WIyWlLk6GJQsqaUBKTNV-1">
          <mxGeometry x="608" y="-1050" width="162" height="260" as="geometry" />
        </mxCell>
        <mxCell id="XQoSIhCY0IaSh6E8UIEB-84" value="" style="shape=partialRectangle;html=1;whiteSpace=wrap;collapsible=0;dropTarget=0;pointerEvents=0;fillColor=none;top=0;left=0;bottom=0;right=0;points=[[0,0.5],[1,0.5]];portConstraint=eastwest;" vertex="1" parent="XQoSIhCY0IaSh6E8UIEB-83">
          <mxGeometry width="162" height="87" as="geometry" />
        </mxCell>
        <mxCell id="XQoSIhCY0IaSh6E8UIEB-85" value="Value 1" style="shape=partialRectangle;html=1;whiteSpace=wrap;connectable=0;fillColor=none;top=0;left=0;bottom=0;right=0;overflow=hidden;" vertex="1" parent="XQoSIhCY0IaSh6E8UIEB-84">
          <mxGeometry width="54" height="87" as="geometry" />
        </mxCell>
        <mxCell id="XQoSIhCY0IaSh6E8UIEB-86" value="Value 2" style="shape=partialRectangle;html=1;whiteSpace=wrap;connectable=0;fillColor=none;top=0;left=0;bottom=0;right=0;overflow=hidden;" vertex="1" parent="XQoSIhCY0IaSh6E8UIEB-84">
          <mxGeometry x="54" width="54" height="87" as="geometry" />
        </mxCell>
        <mxCell id="XQoSIhCY0IaSh6E8UIEB-87" value="Value 3" style="shape=partialRectangle;html=1;whiteSpace=wrap;connectable=0;fillColor=none;top=0;left=0;bottom=0;right=0;overflow=hidden;" vertex="1" parent="XQoSIhCY0IaSh6E8UIEB-84">
          <mxGeometry x="108" width="54" height="87" as="geometry" />
        </mxCell>
        <mxCell id="XQoSIhCY0IaSh6E8UIEB-88" value="" style="shape=partialRectangle;html=1;whiteSpace=wrap;collapsible=0;dropTarget=0;pointerEvents=0;fillColor=none;top=0;left=0;bottom=0;right=0;points=[[0,0.5],[1,0.5]];portConstraint=eastwest;" vertex="1" parent="XQoSIhCY0IaSh6E8UIEB-83">
          <mxGeometry y="87" width="162" height="86" as="geometry" />
        </mxCell>
        <mxCell id="XQoSIhCY0IaSh6E8UIEB-89" value="Value 4" style="shape=partialRectangle;html=1;whiteSpace=wrap;connectable=0;fillColor=none;top=0;left=0;bottom=0;right=0;overflow=hidden;" vertex="1" parent="XQoSIhCY0IaSh6E8UIEB-88">
          <mxGeometry width="54" height="86" as="geometry" />
        </mxCell>
        <mxCell id="XQoSIhCY0IaSh6E8UIEB-90" value="Value 5" style="shape=partialRectangle;html=1;whiteSpace=wrap;connectable=0;fillColor=none;top=0;left=0;bottom=0;right=0;overflow=hidden;" vertex="1" parent="XQoSIhCY0IaSh6E8UIEB-88">
          <mxGeometry x="54" width="54" height="86" as="geometry" />
        </mxCell>
        <mxCell id="XQoSIhCY0IaSh6E8UIEB-91" value="Value 6" style="shape=partialRectangle;html=1;whiteSpace=wrap;connectable=0;fillColor=none;top=0;left=0;bottom=0;right=0;overflow=hidden;" vertex="1" parent="XQoSIhCY0IaSh6E8UIEB-88">
          <mxGeometry x="108" width="54" height="86" as="geometry" />
        </mxCell>
        <mxCell id="XQoSIhCY0IaSh6E8UIEB-92" value="" style="shape=partialRectangle;html=1;whiteSpace=wrap;collapsible=0;dropTarget=0;pointerEvents=0;fillColor=none;top=0;left=0;bottom=0;right=0;points=[[0,0.5],[1,0.5]];portConstraint=eastwest;" vertex="1" parent="XQoSIhCY0IaSh6E8UIEB-83">
          <mxGeometry y="173" width="162" height="87" as="geometry" />
        </mxCell>
        <mxCell id="XQoSIhCY0IaSh6E8UIEB-93" value="Value 7" style="shape=partialRectangle;html=1;whiteSpace=wrap;connectable=0;fillColor=none;top=0;left=0;bottom=0;right=0;overflow=hidden;" vertex="1" parent="XQoSIhCY0IaSh6E8UIEB-92">
          <mxGeometry width="54" height="87" as="geometry" />
        </mxCell>
        <mxCell id="XQoSIhCY0IaSh6E8UIEB-94" value="Value 8" style="shape=partialRectangle;html=1;whiteSpace=wrap;connectable=0;fillColor=none;top=0;left=0;bottom=0;right=0;overflow=hidden;" vertex="1" parent="XQoSIhCY0IaSh6E8UIEB-92">
          <mxGeometry x="54" width="54" height="87" as="geometry" />
        </mxCell>
        <mxCell id="XQoSIhCY0IaSh6E8UIEB-95" value="Value 9" style="shape=partialRectangle;html=1;whiteSpace=wrap;connectable=0;fillColor=none;top=0;left=0;bottom=0;right=0;overflow=hidden;" vertex="1" parent="XQoSIhCY0IaSh6E8UIEB-92">
          <mxGeometry x="108" width="54" height="87" as="geometry" />
        </mxCell>
      </root>
    </mxGraphModel>
  </diagram>
</mxfile>
